# Blender 5.1.2
# www.blender.org
o Cube
v 0.471826 1.258219 -1.000000
v 0.471826 -1.000000 0.000000
v 0.471826 1.258219 1.000000
v -0.471826 1.258219 -1.000000
v -0.471826 -1.000000 0.000000
v -0.471826 1.258219 1.000000
v 0.471826 1.000000 0.000000
v -0.471826 1.000000 0.000000
v 0.471826 0.772308 1.294117
v -0.471826 0.772308 1.294117
v 0.471826 0.772308 -1.294117
v -0.471826 0.772308 -1.294117
v 0.471826 -0.113846 -0.927222
v -0.471826 -0.113846 -0.927222
v -0.471826 1.316905 -0.574647
v 0.471826 1.316905 -0.574647
v 0.471826 1.316905 0.593427
v -0.471826 1.316905 0.593427
v 0.471826 -0.113846 0.927222
v -0.471826 -0.113846 0.927222
vn -0.0000 0.9897 0.1429
vn -0.0000 0.5178 0.8555
vn -1.0000 -0.0000 -0.0000
vn 1.0000 -0.0000 -0.0000
vn -0.0000 0.5178 -0.8555
vn -0.0000 0.8757 0.4829
vn -0.0000 -0.3825 0.9239
vn -0.0000 -0.3825 -0.9239
vn -0.0000 -0.7229 -0.6909
vn -0.0000 0.9906 -0.1367
vn -0.0000 -0.7229 0.6909
vn -0.0000 0.8821 -0.4711
vt 0.015595 0.848565
vt 0.188857 0.760977
vt 0.188857 0.848565
vt 0.015595 0.642543
vt 0.188857 0.642543
vt 0.770935 0.720054
vt 0.988301 0.555521
vt 0.877455 0.287798
vt 0.418038 0.720054
vt 0.206347 0.555521
vt 0.317193 0.287798
vt 0.188857 0.848560
vt 0.015595 0.987124
vt 0.015595 0.848560
vt 0.015595 0.442881
vt 0.188857 0.442881
vt 0.015595 0.442234
vt 0.188857 0.442234
vt 0.015595 0.175123
vt 0.188857 0.175123
vt 0.015595 0.760977
vt 0.597324 0.624311
vt 0.597324 0.020074
vt 0.188857 0.987124
vt 0.899442 0.702324
vt 0.295205 0.702324
s 0
f 18/1/1 3/2/1 17/3/1
f 3/2/2 10/4/2 9/5/2
f 15/6/3 12/7/3 14/8/3
f 17/9/4 9/10/4 19/11/4
f 4/2/5 11/4/5 12/5/5
f 11/7/4 16/6/4 13/8/4
f 10/10/3 18/9/3 20/11/3
f 15/12/6 7/13/6 16/14/6
f 9/5/7 20/15/7 19/16/7
f 12/5/8 13/17/8 14/18/8
f 14/18/9 2/19/9 5/20/9
f 4/2/10 16/14/10 1/21/10
f 13/8/4 7/22/4 2/23/4
f 8/22/3 14/8/3 5/23/3
f 19/16/11 5/19/11 2/20/11
f 20/11/3 8/22/3 5/23/3
f 7/22/4 19/11/4 2/23/4
f 8/13/12 17/3/12 7/24/12
f 18/1/1 6/21/1 3/2/1
f 3/2/2 6/21/2 10/4/2
f 15/6/3 4/25/3 12/7/3
f 17/9/4 3/26/4 9/10/4
f 4/2/5 1/21/5 11/4/5
f 11/7/4 1/25/4 16/6/4
f 10/10/3 6/26/3 18/9/3
f 15/12/6 8/24/6 7/13/6
f 9/5/7 10/4/7 20/15/7
f 12/5/8 11/4/8 13/17/8
f 14/18/9 13/17/9 2/19/9
f 4/2/10 15/12/10 16/14/10
f 13/8/4 16/6/4 7/22/4
f 8/22/3 15/6/3 14/8/3
f 19/16/11 20/15/11 5/19/11
f 20/11/3 18/9/3 8/22/3
f 7/22/4 17/9/4 19/11/4
f 8/13/12 18/1/12 17/3/12
